<svg width="362" height="170" viewBox="0 0 362 170" fill="none" xmlns="http://www.w3.org/2000/svg">
<path d="M40.891 79.779C40.7537 80.5343 40.6507 81.3927 40.582 82.354C40.5133 83.3153 40.479 84.4483 40.479 85.753C40.479 86.7143 40.5133 87.7787 40.582 88.946C40.6507 90.1133 40.685 91.1777 40.685 92.139C40.685 94.199 40.582 95.847 40.376 97.083C40.5133 97.7697 40.582 98.4563 40.582 99.143C40.582 99.349 40.5477 99.761 40.479 100.379C40.4103 100.997 40.3417 101.718 40.273 102.542C40.2043 103.297 40.1357 104.087 40.067 104.911C39.9983 105.666 39.964 106.284 39.964 106.765C39.964 106.902 39.964 107.04 39.964 107.177C40.0327 107.246 40.067 107.349 40.067 107.486C39.5863 109.203 39.14 112.052 38.728 116.035C38.3847 119.949 37.9727 124.447 37.492 129.528C37.0113 130.695 36.153 131.279 34.917 131.279C34.3677 131.279 33.7497 131.176 33.063 130.97L32.033 127.777C28.8743 129.7 25.132 130.661 20.806 130.661C18.54 130.661 16.48 130.283 14.626 129.528C12.772 128.773 11.1583 127.743 9.785 126.438C8.48033 125.065 7.45033 123.485 6.695 121.7C6.00833 119.846 5.665 117.855 5.665 115.726C5.665 114.49 5.80233 113.288 6.077 112.121C6.42033 110.954 6.83233 109.855 7.313 108.825C7.79367 107.726 8.30867 106.765 8.858 105.941C9.476 105.048 10.0597 104.327 10.609 103.778C11.9823 102.405 13.9737 101.134 16.583 99.967C19.261 98.7997 22.1107 98.216 25.132 98.216C27.8787 98.216 31.3463 99.1087 35.535 100.894C35.4663 100.207 35.432 99.555 35.432 98.937C35.432 98.2503 35.432 97.598 35.432 96.98C35.432 93.3407 35.638 89.976 36.05 86.886L35.432 79.882C35.432 79.5387 35.3977 79.2297 35.329 78.955C35.329 78.6803 35.329 78.4057 35.329 78.131C35.329 77.4443 35.329 76.7577 35.329 76.071C35.3977 75.3843 35.5007 74.7663 35.638 74.217C35.7753 73.6677 36.0157 73.2213 36.359 72.878C36.771 72.5347 37.3203 72.363 38.007 72.363C38.4877 72.363 38.8653 72.3973 39.14 72.466C39.4147 72.5347 39.6207 72.8093 39.758 73.29C39.964 73.702 40.1357 74.423 40.273 75.453C40.4103 76.483 40.6163 77.925 40.891 79.779ZM35.02 105.838C32.4793 103.366 29.1147 102.13 24.926 102.13C22.866 102.13 21.115 102.302 19.673 102.645C18.2997 102.988 17.1323 103.538 16.171 104.293C15.2097 104.98 14.3857 105.907 13.699 107.074C13.0123 108.241 12.3257 109.649 11.639 111.297C11.021 112.945 10.712 114.524 10.712 116.035C10.712 119.125 11.845 121.7 14.111 123.76C16.4457 125.751 19.467 126.747 23.175 126.747C26.265 126.747 29.4237 125.511 32.651 123.039C32.9943 121.666 33.4063 119.983 33.887 117.992C34.3677 115.932 34.608 113.7 34.608 111.297C34.5393 110.885 34.505 110.507 34.505 110.164C34.505 109.821 34.505 109.477 34.505 109.134C34.505 108.379 34.5393 107.795 34.608 107.383C34.7453 106.902 34.8827 106.387 35.02 105.838ZM82.5609 129.94C80.8443 131.039 77.4796 131.966 72.4669 132.721C71.9863 132.652 71.2309 132.584 70.2009 132.515C69.1709 132.446 67.9693 132.137 66.5959 131.588C65.2226 130.97 63.7806 130.043 62.2699 128.807C60.7593 127.502 59.2829 125.545 57.8409 122.936C56.8796 121.219 56.1586 119.503 55.6779 117.786C55.2659 116.001 55.0599 114.215 55.0599 112.43C55.0599 111.331 55.3003 109.958 55.7809 108.31C56.3303 106.593 57.1543 104.98 58.2529 103.469C59.4203 101.89 60.8966 100.551 62.6819 99.452C64.4673 98.3533 66.6303 97.804 69.1709 97.804C73.5656 97.804 77.6856 99.3147 81.5309 102.336C84.8956 106.731 86.5779 111.709 86.5779 117.271C86.5779 122.146 85.2389 126.369 82.5609 129.94ZM74.0119 102.336C72.5699 101.718 71.1966 101.409 69.8919 101.409C68.7933 101.409 67.6603 101.684 66.4929 102.233C65.3256 102.714 64.2613 103.469 63.2999 104.499C62.3386 105.529 61.5489 106.834 60.9309 108.413C60.3129 109.924 60.0039 111.709 60.0039 113.769C60.0039 115.348 60.2099 116.996 60.6219 118.713C61.1026 120.43 61.8236 121.975 62.7849 123.348C63.7463 124.721 64.9479 125.854 66.3899 126.747C67.9006 127.64 69.6859 128.086 71.7459 128.086C74.0806 128.086 76.3809 127.537 78.6469 126.438C80.9129 123.485 82.0459 120.224 82.0459 116.653C82.0459 109.306 79.3679 104.533 74.0119 102.336ZM132.091 103.572C133.739 106.662 134.563 109.546 134.563 112.224C134.494 113.185 134.391 114.147 134.254 115.108C134.117 116.069 133.808 117.031 133.327 117.992L131.061 122.73L127.662 126.129C125.602 128.189 123.473 129.562 121.276 130.249C119.147 130.867 117.499 131.176 116.332 131.176C114.341 131.176 112.006 130.352 109.328 128.704C108.435 130.215 107.405 130.97 106.238 130.97C105.757 130.97 105.208 130.867 104.59 130.661C104.659 129.7 104.693 128.635 104.693 127.468C104.762 126.232 104.796 124.927 104.796 123.554C104.727 123.279 104.624 122.661 104.487 121.7C104.418 120.67 104.315 119.503 104.178 118.198C104.041 116.825 103.903 115.383 103.766 113.872C103.629 112.361 103.491 110.954 103.354 109.649C103.285 108.276 103.182 107.108 103.045 106.147C102.908 105.186 102.805 104.602 102.736 104.396L101.088 91.521C100.676 88.431 100.161 85.7873 99.5431 83.59C98.9937 81.3927 98.7191 79.7103 98.7191 78.543C98.7191 77.0323 99.3714 76.277 100.676 76.277C101.637 76.277 102.393 76.7577 102.942 77.719C103.491 78.6803 103.938 80.0537 104.281 81.839C104.693 83.6243 105.036 85.7873 105.311 88.328C105.586 90.8687 105.929 93.7183 106.341 96.877C106.547 98.7997 106.684 100.413 106.753 101.718C106.822 103.023 106.89 104.018 106.959 104.705C111.148 101.684 113.963 100.001 115.405 99.658C116.435 99.1087 117.637 98.731 119.01 98.525C120.383 98.2503 121.963 98.113 123.748 98.113C124.984 98.4563 126.048 98.7997 126.941 99.143C127.834 99.4863 128.589 99.864 129.207 100.276C129.825 100.688 130.34 101.169 130.752 101.718C131.233 102.267 131.679 102.885 132.091 103.572ZM129.413 116.241C129.894 114.112 130.134 112.396 130.134 111.091C130.134 110.404 129.962 109.546 129.619 108.516C129.276 107.486 128.761 106.49 128.074 105.529C127.387 104.568 126.529 103.744 125.499 103.057C124.469 102.37 123.267 102.027 121.894 102.027C119.628 102.027 115.027 103.95 108.092 107.795C108.367 111.16 108.676 115.966 109.019 122.215C110.118 125.786 112.178 127.571 115.199 127.571C116.298 127.571 117.602 127.262 119.113 126.644C120.624 126.026 122.066 125.202 123.439 124.172C124.881 123.142 126.151 121.94 127.25 120.567C128.349 119.194 129.07 117.752 129.413 116.241ZM158.448 76.277C158.379 76.689 158.207 77.3757 157.933 78.337C157.658 79.2983 157.349 80.3627 157.006 81.53C156.731 82.6973 156.456 83.899 156.182 85.135C155.907 86.3023 155.735 87.3667 155.667 88.328C155.598 89.152 155.461 90.1477 155.255 91.315C155.117 92.4137 154.911 93.5467 154.637 94.714C154.431 95.8127 154.225 96.877 154.019 97.907C153.881 98.8683 153.778 99.658 153.71 100.276C153.572 101.718 153.435 103.366 153.298 105.22C153.229 107.074 153.16 108.859 153.092 110.576C153.092 112.224 153.092 113.7 153.092 115.005C153.092 116.31 153.092 117.134 153.092 117.477C153.229 118.713 153.401 120.121 153.607 121.7C153.813 123.211 154.087 124.859 154.431 126.644C154.911 127.399 155.907 128.498 157.418 129.94C156.388 131.107 155.152 131.691 153.71 131.691C152.474 131.691 151.547 131.21 150.929 130.249C150.379 129.288 149.967 127.914 149.693 126.129C149.487 124.275 149.315 122.043 149.178 119.434C149.109 116.756 148.937 113.769 148.663 110.473C148.937 109.992 149.143 109.203 149.281 108.104C149.418 106.937 149.487 105.769 149.487 104.602C149.555 103.435 149.59 102.336 149.59 101.306C149.658 100.276 149.727 99.555 149.796 99.143C149.796 99.2117 149.899 98.6967 150.105 97.598C150.311 96.4307 150.551 95.0917 150.826 93.581C151.1 92.0017 151.341 90.4223 151.547 88.843C151.753 87.195 151.856 85.9247 151.856 85.032V84.414C152.13 83.2467 152.439 81.9077 152.783 80.397C153.126 78.8177 153.538 77.1353 154.019 75.35C154.499 74.8693 155.117 74.629 155.873 74.629C156.903 74.629 157.761 75.1783 158.448 76.277ZM209.428 127.88C208.398 128.841 207.231 129.803 205.926 130.764C204.69 131.725 203.351 132.584 201.909 133.339C200.536 134.094 199.128 134.678 197.686 135.09C196.244 135.571 194.836 135.811 193.463 135.811C192.158 135.811 190.648 135.708 188.931 135.502C187.283 135.296 185.395 134.918 183.266 134.369C181.961 133.476 180.622 132.378 179.249 131.073C177.876 129.768 176.64 128.326 175.541 126.747C174.442 125.168 173.515 123.485 172.76 121.7C172.073 119.846 171.73 117.958 171.73 116.035C171.73 114.936 172.039 112.258 172.657 108.001C173.275 106.902 173.893 105.804 174.511 104.705C175.198 103.606 175.919 102.542 176.674 101.512C177.498 100.482 178.425 99.4863 179.455 98.525C180.554 97.5637 181.824 96.671 183.266 95.847C185.601 95.2977 187.592 94.8857 189.24 94.611C190.957 94.3363 192.33 94.199 193.36 94.199C195.283 94.199 196.862 94.508 198.098 95.126C199.403 95.6753 200.879 96.774 202.527 98.422L205.72 101.718V102.542C205.72 104.945 205.445 106.834 204.896 108.207C204.415 109.58 203.454 110.713 202.012 111.606C200.57 112.499 198.579 113.288 196.038 113.975C193.566 114.662 190.373 115.451 186.459 116.344H186.047C185.223 116.344 184.09 116.481 182.648 116.756C181.206 116.962 179.421 117.271 177.292 117.683C178.665 122.284 180.554 125.786 182.957 128.189C185.36 130.592 188.176 131.794 191.403 131.794C195.866 131.794 200.948 129.562 206.647 125.099C206.922 124.824 207.265 124.687 207.677 124.687C208.982 124.687 209.634 125.408 209.634 126.85C209.634 127.125 209.565 127.468 209.428 127.88ZM201.188 103.675C198.785 99.761 196.038 97.804 192.948 97.804C190.133 97.804 187.42 98.422 184.811 99.658C182.202 100.894 180.245 102.542 178.94 104.602L177.91 107.898C177.635 108.791 177.429 109.718 177.292 110.679C177.223 111.572 177.155 112.499 177.086 113.46C179.009 113.048 180.828 112.773 182.545 112.636C184.33 112.499 186.013 112.361 187.592 112.224C189.171 112.018 190.682 111.743 192.124 111.4C193.566 111.057 194.974 110.507 196.347 109.752C199.506 108.035 201.119 106.01 201.188 103.675ZM257.481 93.169C257.55 93.9243 257.584 94.6797 257.584 95.435C257.653 96.1217 257.687 96.8427 257.687 97.598C257.687 99.3833 257.584 100.894 257.378 102.13C257.241 103.366 257.035 104.739 256.76 106.25C256.554 107.692 256.28 109.477 255.936 111.606C255.662 113.735 255.387 116.55 255.112 120.052C255.112 120.189 255.078 120.361 255.009 120.567C255.009 120.773 255.009 120.979 255.009 121.185C255.009 121.94 255.044 122.833 255.112 123.863C255.181 124.824 255.25 125.751 255.318 126.644C255.456 127.468 255.559 128.189 255.627 128.807C255.765 129.356 255.833 129.562 255.833 129.425C255.833 130.455 255.112 130.97 253.67 130.97C252.984 130.97 252.434 130.73 252.022 130.249C251.679 129.7 251.404 129.082 251.198 128.395C251.061 127.64 250.958 126.85 250.889 126.026C250.889 125.202 250.889 124.481 250.889 123.863C250.889 122.764 250.992 121.528 251.198 120.155C250.306 120.979 249.413 121.803 248.52 122.627C247.628 123.451 246.735 124.309 245.842 125.202C243.645 127.056 241.482 128.155 239.353 128.498C237.293 128.773 235.645 128.91 234.409 128.91C230.907 128.91 228.229 127.914 226.375 125.923C224.521 123.932 223.594 121.082 223.594 117.374C223.594 116.962 223.594 116.413 223.594 115.726C223.663 114.971 223.732 114.078 223.8 113.048C223.8 112.911 223.766 112.773 223.697 112.636C223.697 112.499 223.697 112.361 223.697 112.224C223.697 111.469 223.732 110.713 223.8 109.958C223.869 109.134 224.006 108.138 224.212 106.971C224.487 105.735 224.83 104.224 225.242 102.439C225.723 100.585 226.375 98.2503 227.199 95.435C227.68 94.9543 228.229 94.714 228.847 94.714C230.083 94.714 230.701 95.4007 230.701 96.774C230.701 97.186 230.564 97.907 230.289 98.937C230.015 99.967 229.706 101.134 229.362 102.439C229.088 103.675 228.813 104.945 228.538 106.25C228.264 107.486 228.126 108.482 228.126 109.237C228.126 109.443 228.126 109.649 228.126 109.855C228.195 109.992 228.229 110.13 228.229 110.267C228.092 111.228 227.955 112.121 227.817 112.945C227.749 113.7 227.714 114.421 227.714 115.108C227.714 116.413 227.817 117.683 228.023 118.919C228.298 120.086 228.744 121.151 229.362 122.112C230.049 123.005 230.942 123.726 232.04 124.275C233.139 124.824 234.547 125.099 236.263 125.099C238.049 125.099 239.731 124.721 241.31 123.966C242.89 123.142 244.297 122.146 245.533 120.979C246.838 119.743 247.937 118.438 248.829 117.065C249.791 115.692 250.546 114.387 251.095 113.151C251.301 111.709 251.576 109.992 251.919 108.001C252.331 106.01 252.812 103.744 253.361 101.203C253.293 100.791 253.258 100.413 253.258 100.07C253.258 99.658 253.258 99.2803 253.258 98.937C253.258 98.319 253.293 97.6323 253.361 96.877C253.43 96.1217 253.567 95.435 253.773 94.817C253.979 94.1303 254.22 93.581 254.494 93.169C254.838 92.6883 255.25 92.448 255.73 92.448C256.554 92.448 257.138 92.6883 257.481 93.169ZM308.184 94.714C308.115 95.4007 307.497 97.0487 306.33 99.658C305.231 102.267 303.652 105.529 301.592 109.443C300.768 110.885 300.116 112.121 299.635 113.151C299.154 114.112 298.777 114.971 298.502 115.726C298.227 116.413 297.987 117.031 297.781 117.58C297.644 118.129 297.438 118.679 297.163 119.228C296.545 120.464 295.961 121.563 295.412 122.524C294.863 123.417 294.313 124.206 293.764 124.893C293.558 125.442 293.18 126.129 292.631 126.953C292.15 127.777 291.567 128.567 290.88 129.322C290.193 130.077 289.404 130.73 288.511 131.279C287.687 131.828 286.829 132.103 285.936 132.103C283.739 132.103 282.125 130.489 281.095 127.262C280.202 126.301 279.344 125.099 278.52 123.657C277.765 122.146 277.078 120.704 276.46 119.331C275.842 117.958 275.327 116.756 274.915 115.726C274.572 114.627 274.366 114.009 274.297 113.872C273.885 112.705 273.576 111.64 273.37 110.679C273.233 109.649 273.164 108.653 273.164 107.692V106.971C271.653 102.439 270.898 98.9713 270.898 96.568C271.516 95.8813 272.374 95.538 273.473 95.538C273.954 95.538 274.331 95.7783 274.606 96.259C274.949 96.671 275.224 97.2547 275.43 98.01C275.636 98.6967 275.808 99.4863 275.945 100.379C276.151 101.203 276.323 101.993 276.46 102.748C277.49 108.653 278.52 112.567 279.55 114.49C280.168 116.893 281.061 119.056 282.228 120.979L286.245 127.262C290.64 122.867 293.283 118.816 294.176 115.108C295 113.529 295.618 112.19 296.03 111.091C296.442 109.992 296.923 108.722 297.472 107.28C298.021 105.838 298.811 104.053 299.841 101.924C300.871 99.7953 302.485 96.877 304.682 93.169C304.957 92.757 305.369 92.551 305.918 92.551C306.467 92.551 306.982 92.7913 307.463 93.272C307.944 93.7527 308.184 94.2333 308.184 94.714ZM355.579 127.88C354.549 128.841 353.382 129.803 352.077 130.764C350.841 131.725 349.502 132.584 348.06 133.339C346.687 134.094 345.279 134.678 343.837 135.09C342.395 135.571 340.988 135.811 339.614 135.811C338.31 135.811 336.799 135.708 335.082 135.502C333.434 135.296 331.546 134.918 329.417 134.369C328.113 133.476 326.774 132.378 325.4 131.073C324.027 129.768 322.791 128.326 321.692 126.747C320.594 125.168 319.667 123.485 318.911 121.7C318.225 119.846 317.881 117.958 317.881 116.035C317.881 114.936 318.19 112.258 318.808 108.001C319.426 106.902 320.044 105.804 320.662 104.705C321.349 103.606 322.07 102.542 322.825 101.512C323.649 100.482 324.576 99.4863 325.606 98.525C326.705 97.5637 327.975 96.671 329.417 95.847C331.752 95.2977 333.743 94.8857 335.391 94.611C337.108 94.3363 338.481 94.199 339.511 94.199C341.434 94.199 343.013 94.508 344.249 95.126C345.554 95.6753 347.03 96.774 348.678 98.422L351.871 101.718V102.542C351.871 104.945 351.597 106.834 351.047 108.207C350.567 109.58 349.605 110.713 348.163 111.606C346.721 112.499 344.73 113.288 342.189 113.975C339.717 114.662 336.524 115.451 332.61 116.344H332.198C331.374 116.344 330.241 116.481 328.799 116.756C327.357 116.962 325.572 117.271 323.443 117.683C324.817 122.284 326.705 125.786 329.108 128.189C331.512 130.592 334.327 131.794 337.554 131.794C342.018 131.794 347.099 129.562 352.798 125.099C353.073 124.824 353.416 124.687 353.828 124.687C355.133 124.687 355.785 125.408 355.785 126.85C355.785 127.125 355.717 127.468 355.579 127.88ZM347.339 103.675C344.936 99.761 342.189 97.804 339.099 97.804C336.284 97.804 333.572 98.422 330.962 99.658C328.353 100.894 326.396 102.542 325.091 104.602L324.061 107.898C323.787 108.791 323.581 109.718 323.443 110.679C323.375 111.572 323.306 112.499 323.237 113.46C325.16 113.048 326.98 112.773 328.696 112.636C330.482 112.499 332.164 112.361 333.743 112.224C335.323 112.018 336.833 111.743 338.275 111.4C339.717 111.057 341.125 110.507 342.498 109.752C345.657 108.035 347.271 106.01 347.339 103.675Z" fill="white"/>
<path d="M270.564 97.286C270.633 96.5993 271.251 94.9513 272.418 92.342C273.517 89.7327 275.096 86.471 277.156 82.557C277.98 81.115 278.632 79.879 279.113 78.849C279.594 77.8877 279.971 77.0293 280.246 76.274C280.521 75.5873 280.761 74.9693 280.967 74.42C281.104 73.8707 281.31 73.3213 281.585 72.772C282.203 71.536 282.787 70.4373 283.336 69.476C283.885 68.5833 284.435 67.7937 284.984 67.107C285.19 66.5577 285.568 65.871 286.117 65.047C286.598 64.223 287.181 63.4333 287.868 62.678C288.555 61.9227 289.344 61.2703 290.237 60.721C291.061 60.1717 291.919 59.897 292.812 59.897C295.009 59.897 296.623 61.5107 297.653 64.738C298.546 65.6993 299.404 66.901 300.228 68.343C300.983 69.8537 301.67 71.2957 302.288 72.669C302.906 74.0423 303.421 75.244 303.833 76.274C304.176 77.3727 304.382 77.9907 304.451 78.128C304.863 79.2953 305.172 80.3597 305.378 81.321C305.515 82.351 305.584 83.3467 305.584 84.308V85.029C307.095 89.561 307.85 93.0287 307.85 95.432C307.232 96.1187 306.374 96.462 305.275 96.462C304.794 96.462 304.417 96.2217 304.142 95.741C303.799 95.329 303.524 94.7453 303.318 93.99C303.112 93.3033 302.94 92.5137 302.803 91.621C302.597 90.797 302.425 90.0073 302.288 89.252C301.258 83.3467 300.228 79.4327 299.198 77.51C298.58 75.1067 297.687 72.9437 296.52 71.021L292.503 64.738C288.108 69.1327 285.465 73.184 284.572 76.892C283.748 78.4713 283.13 79.8103 282.718 80.909C282.306 82.0077 281.825 83.278 281.276 84.72C280.727 86.162 279.937 87.9473 278.907 90.076C277.877 92.2047 276.263 95.123 274.066 98.831C273.791 99.243 273.379 99.449 272.83 99.449C272.281 99.449 271.766 99.2087 271.285 98.728C270.804 98.2473 270.564 97.7667 270.564 97.286Z" fill="white"/>
<path d="M280.675 30.62C282.025 29.756 284.671 29.027 288.613 28.433C288.991 28.487 289.585 28.541 290.395 28.595C291.205 28.649 292.15 28.892 293.23 29.324C294.31 29.81 295.444 30.539 296.632 31.511C297.82 32.537 298.981 34.076 300.115 36.128C300.871 37.478 301.438 38.828 301.816 40.178C302.14 41.582 302.302 42.986 302.302 44.39C302.302 45.254 302.113 46.334 301.735 47.63C301.303 48.98 300.655 50.249 299.791 51.437C298.873 52.679 297.712 53.732 296.308 54.596C294.904 55.46 293.203 55.892 291.205 55.892C287.749 55.892 284.509 54.704 281.485 52.328C278.839 48.872 277.516 44.957 277.516 40.583C277.516 36.749 278.569 33.428 280.675 30.62ZM287.398 52.328C288.532 52.814 289.612 53.057 290.638 53.057C291.502 53.057 292.393 52.841 293.311 52.409C294.229 52.031 295.066 51.437 295.822 50.627C296.578 49.817 297.199 48.791 297.685 47.549C298.171 46.361 298.414 44.957 298.414 43.337C298.414 42.095 298.252 40.799 297.928 39.449C297.55 38.099 296.983 36.884 296.227 35.804C295.471 34.724 294.526 33.833 293.392 33.131C292.204 32.429 290.8 32.078 289.18 32.078C287.344 32.078 285.535 32.51 283.753 33.374C281.971 35.696 281.08 38.261 281.08 41.069C281.08 46.847 283.186 50.6 287.398 52.328Z" fill="white"/>
</svg>
