<svg width="38" height="104" viewBox="0 0 38 104" fill="none" xmlns="http://www.w3.org/2000/svg">
<path d="M37.62 66.2807C37.551 66.9674 36.933 68.6154 35.766 71.2247C34.667 73.8337 33.088 77.0957 31.028 81.0097C30.204 82.4517 29.552 83.6877 29.071 84.7177C28.59 85.6787 28.213 86.5377 27.938 87.2927C27.663 87.9797 27.423 88.5977 27.217 89.1467C27.08 89.6957 26.874 90.2457 26.599 90.7947C25.981 92.0307 25.397 93.1297 24.848 94.0907C24.299 94.9837 23.749 95.7727 23.2 96.4597C22.994 97.0087 22.616 97.6957 22.067 98.5197C21.586 99.3437 21.003 100.134 20.316 100.889C19.629 101.644 18.84 102.297 17.947 102.846C17.123 103.395 16.265 103.67 15.372 103.67C13.175 103.67 11.561 102.056 10.531 98.8287C9.63798 97.8677 8.77996 96.6657 7.95596 95.2237C7.20096 93.7127 6.51397 92.2707 5.89597 90.8977C5.27797 89.5247 4.76298 88.3227 4.35098 87.2927C4.00798 86.1937 3.80197 85.5757 3.73297 85.4387C3.32097 84.2717 3.01197 83.2067 2.80597 82.2457C2.66897 81.2157 2.59998 80.2197 2.59998 79.2587V78.5377C1.08898 74.0057 0.333984 70.538 0.333984 68.1347C0.951984 67.448 1.80997 67.1047 2.90897 67.1047C3.38997 67.1047 3.76696 67.345 4.04196 67.8257C4.38496 68.2377 4.65997 68.8214 4.86597 69.5767C5.07197 70.2634 5.24398 71.053 5.38098 71.9457C5.58698 72.7697 5.75897 73.5597 5.89597 74.3147C6.92597 80.2197 7.95596 84.1337 8.98596 86.0567C9.60396 88.4597 10.497 90.6227 11.664 92.5457L15.681 98.8287C20.076 94.4337 22.719 90.3827 23.612 86.6747C24.436 85.0957 25.054 83.7567 25.466 82.6577C25.878 81.5587 26.359 80.2887 26.908 78.8467C27.457 77.4047 28.247 75.6197 29.277 73.4907C30.307 71.362 31.921 68.4437 34.118 64.7357C34.393 64.3237 34.805 64.1177 35.354 64.1177C35.903 64.1177 36.418 64.358 36.899 64.8387C37.38 65.3194 37.62 65.8 37.62 66.2807Z" fill="black"/>
<path d="M0 68.8529C0.069 68.1662 0.687004 66.5182 1.854 63.9089C2.953 61.2996 4.53201 58.0379 6.59201 54.1239C7.41601 52.6819 8.06801 51.4459 8.54901 50.4159C9.03001 49.4546 9.40701 48.5962 9.68201 47.8409C9.95701 47.1542 10.197 46.5362 10.403 45.9869C10.54 45.4376 10.746 44.8882 11.021 44.3389C11.639 43.1029 12.223 42.0042 12.772 41.0429C13.321 40.1502 13.871 39.3606 14.42 38.6739C14.626 38.1246 15.004 37.4379 15.553 36.6139C16.034 35.7899 16.617 35.0002 17.304 34.2449C17.991 33.4896 18.78 32.8372 19.673 32.2879C20.497 31.7386 21.355 31.4639 22.248 31.4639C24.445 31.4639 26.059 33.0776 27.089 36.3049C27.982 37.2662 28.84 38.4679 29.664 39.9099C30.419 41.4206 31.106 42.8626 31.724 44.2359C32.342 45.6092 32.857 46.8109 33.269 47.8409C33.612 48.9396 33.818 49.5576 33.887 49.6949C34.299 50.8622 34.608 51.9266 34.814 52.8879C34.951 53.9179 35.02 54.9136 35.02 55.8749V56.5959C36.531 61.1279 37.286 64.5956 37.286 66.9989C36.668 67.6856 35.81 68.0289 34.711 68.0289C34.23 68.0289 33.853 67.7886 33.578 67.3079C33.235 66.8959 32.96 66.3122 32.754 65.5569C32.548 64.8702 32.376 64.0806 32.239 63.1879C32.033 62.3639 31.861 61.5742 31.724 60.8189C30.694 54.9136 29.664 50.9996 28.634 49.0769C28.016 46.6736 27.123 44.5106 25.956 42.5879L21.939 36.3049C17.544 40.6996 14.901 44.7509 14.008 48.4589C13.184 50.0382 12.566 51.3772 12.154 52.4759C11.742 53.5746 11.261 54.8449 10.712 56.2869C10.163 57.7289 9.37302 59.5142 8.34302 61.6429C7.31302 63.7716 5.69901 66.6899 3.50201 70.3979C3.22701 70.8099 2.81499 71.0159 2.26599 71.0159C1.71699 71.0159 1.20201 70.7756 0.721008 70.2949C0.240008 69.8142 0 69.3336 0 68.8529Z" fill="black"/>
<path d="M10.1111 2.187C11.4611 1.323 14.1072 0.594 18.0492 0C18.4272 0.054 19.0211 0.107999 19.8311 0.161999C20.6411 0.215999 21.5862 0.458999 22.6662 0.890999C23.7462 1.377 24.8801 2.106 26.0681 3.078C27.2561 4.104 28.4171 5.643 29.5511 7.695C30.3071 9.045 30.8742 10.395 31.2522 11.745C31.5762 13.149 31.7382 14.553 31.7382 15.957C31.7382 16.821 31.5491 17.901 31.1711 19.197C30.7391 20.547 30.0911 21.816 29.2271 23.004C28.3091 24.246 27.1482 25.299 25.7442 26.163C24.3402 27.027 22.6391 27.459 20.6411 27.459C17.1851 27.459 13.9451 26.271 10.9211 23.895C8.27514 20.439 6.95215 16.524 6.95215 12.15C6.95215 8.316 8.00515 4.995 10.1111 2.187ZM16.8342 23.895C17.9682 24.381 19.0482 24.624 20.0742 24.624C20.9382 24.624 21.8292 24.408 22.7472 23.976C23.6652 23.598 24.5021 23.004 25.2581 22.194C26.0141 21.384 26.6352 20.358 27.1212 19.116C27.6072 17.928 27.8502 16.524 27.8502 14.904C27.8502 13.662 27.6882 12.366 27.3642 11.016C26.9862 9.666 26.4191 8.451 25.6631 7.371C24.9071 6.291 23.9622 5.4 22.8282 4.698C21.6402 3.996 20.2361 3.645 18.6161 3.645C16.7801 3.645 14.9711 4.077 13.1891 4.941C11.4071 7.263 10.5161 9.828 10.5161 12.636C10.5161 18.414 12.6222 22.167 16.8342 23.895Z" fill="black"/>
</svg>
